<svg width="76" height="33" viewBox="0 0 76 33" fill="none" xmlns="http://www.w3.org/2000/svg">
<path d="M1.77384 25.5508L1.77966 26.0508L2.27966 26.0449L16.437 25.8791L16.937 25.8733L16.9311 25.3733L16.8956 22.3206L16.8898 21.8206L16.3898 21.8265L6.26887 21.945L6.03645 1.99418L6.03062 1.49418L5.53063 1.50003L1.99414 1.54146L1.49421 1.54731L1.50003 2.04725L1.77384 25.5508ZM31.2816 19.3981L31.2804 19.4015C30.9823 20.2691 30.5215 20.9481 29.9046 21.4576C29.3129 21.9464 28.5478 22.212 27.5719 22.2235C26.5881 22.235 25.8088 21.9873 25.198 21.5119C24.5695 21.0167 24.0894 20.3483 23.7638 19.4879C23.4398 18.6116 23.2682 17.635 23.2556 16.5531C23.2431 15.479 23.3919 14.5022 23.6956 13.618C24.0014 12.7416 24.4666 12.054 25.0843 11.5365C25.6838 11.0404 26.4562 10.7716 27.4384 10.7601C28.4128 10.7487 29.1829 10.9993 29.7859 11.4805C30.4154 11.9829 30.8927 12.659 31.2115 13.5276L31.2115 13.5276L31.2132 13.5322C31.5445 14.4082 31.7196 15.3804 31.7321 16.4537C31.7447 17.5351 31.5922 18.5149 31.2816 19.3981ZM43.2833 31.9616L43.2845 31.962C44.3649 32.3417 45.6297 32.5157 47.0677 32.4989C48.6152 32.4808 50.0186 32.2228 51.2702 31.715C52.5447 31.201 53.5657 30.4129 54.3157 29.3488C55.0812 28.2627 55.435 26.9049 55.4164 25.3128L55.2065 7.29491L55.2007 6.79491L54.7007 6.80077L51.3473 6.84005L50.8474 6.84591L50.8532 7.34584L50.8717 8.93154C50.7944 8.83121 50.7134 8.72876 50.6287 8.62421C50.1966 8.08105 49.6099 7.62618 48.8887 7.25047C48.1144 6.83927 47.1403 6.65977 45.9999 6.67313C44.4991 6.69071 43.1458 7.09032 41.9549 7.87871C40.7624 8.66047 39.8395 9.77224 39.18 11.1921L39.1791 11.1942C38.5235 12.6231 38.2173 14.3104 38.2398 16.2398C38.2622 18.1689 38.6111 19.8263 39.3115 21.1907L39.3131 21.1939C40.0153 22.5381 40.9669 23.57 42.1719 24.2678L42.1755 24.2698C43.3799 24.9542 44.7234 25.2838 46.1936 25.2666C47.3159 25.2534 48.2721 25.0675 49.0321 24.6753C49.7448 24.3074 50.3259 23.864 50.755 23.3358C50.8329 23.2417 50.9076 23.1488 50.979 23.0571L51.0043 25.2267C51.0191 26.4986 50.6429 27.3309 49.9666 27.8442L49.9643 27.846C49.2284 28.4114 48.2719 28.7185 47.0581 28.7328C46.1544 28.7433 45.4545 28.6229 44.9346 28.3994C44.3837 28.1591 43.9684 27.8749 43.6699 27.5571C43.3383 27.2034 43.0811 26.8763 42.8924 26.5758L42.6652 26.2141L42.2725 26.382L39.3453 27.6329L38.8771 27.833L39.0856 28.2975C39.4371 29.0805 39.9597 29.79 40.6431 30.4272C41.3432 31.0799 42.2286 31.588 43.2833 31.9616ZM50.4656 18.994L50.4648 18.996C50.1554 19.7844 49.7017 20.3719 49.1114 20.7834C48.5351 21.1826 47.8086 21.4011 46.9041 21.4116C45.9727 21.4226 45.2217 21.2079 44.6224 20.7961C44.0176 20.3751 43.5478 19.7806 43.2191 18.9906C42.8875 18.1933 42.7084 17.2472 42.6955 16.1417C42.683 15.0688 42.8355 14.1108 43.1443 13.2615C43.4568 12.4226 43.9166 11.7777 44.5158 11.3058L44.5185 11.3037C45.0967 10.8417 45.8382 10.5905 46.778 10.5795C47.6885 10.5688 48.4196 10.7921 49.0024 11.2215L49.0054 11.2236C49.6036 11.6577 50.0732 12.2747 50.4048 13.0991C50.7386 13.929 50.9184 14.9078 50.9317 16.0452C50.9453 17.2145 50.7841 18.193 50.4656 18.994ZM70.592 18.9377L70.5909 18.941C70.2927 19.8086 69.8319 20.4876 69.2151 20.9971C68.6234 21.4859 67.8583 21.7516 66.8824 21.763C65.8985 21.7745 65.1192 21.5268 64.5084 21.0514C63.88 20.5562 63.3999 19.8879 63.0743 19.0277C62.7503 18.1513 62.5787 17.1746 62.5661 16.0926C62.5536 15.0183 62.7024 14.0414 63.0062 13.157C63.3121 12.2809 63.7773 11.5933 64.3949 11.076C64.9944 10.58 65.7667 10.3111 66.7489 10.2996C67.7232 10.2882 68.4934 10.5388 69.0964 11.0201C69.7258 11.5225 70.2032 12.1985 70.522 13.0671L70.5237 13.0717C70.855 13.9478 71.03 14.9199 71.0425 15.9933C71.0551 17.0747 70.9027 18.0544 70.592 18.9377ZM23.0145 24.9472C24.3419 25.7444 25.8784 26.1243 27.6057 26.1041C29.333 26.0839 30.8602 25.6681 32.1687 24.8399C33.4715 24.0155 34.4741 22.8718 35.1756 21.4229C35.8785 19.9709 36.2104 18.2963 36.1885 16.4131C36.1665 14.5224 35.7957 12.8488 35.0594 11.4064C34.3244 9.96661 33.2954 8.8423 31.9731 8.04816C30.6456 7.25091 29.1091 6.87098 27.3818 6.89121C25.6545 6.91144 24.1273 7.32726 22.8188 8.15538C21.5154 8.98026 20.5128 10.1284 19.8116 11.5849C19.1091 13.0442 18.7774 14.726 18.7994 16.6167C18.8214 18.5 19.1922 20.1663 19.9288 21.6014C20.6639 23.0335 21.6929 24.1534 23.0145 24.9472ZM62.3249 24.4867C63.6524 25.2839 65.1889 25.6639 66.9162 25.6436C68.6435 25.6234 70.1707 25.2076 71.4792 24.3795C72.7819 23.555 73.7846 22.4113 74.4861 20.9624C75.189 19.5105 75.5209 17.8359 75.499 15.9526C75.477 14.0619 75.1061 12.3883 74.3699 10.9459C73.6349 9.50615 72.6059 8.38183 71.2836 7.58769C69.9561 6.79044 68.4196 6.41052 66.6923 6.43075C64.965 6.45098 63.4378 6.86679 62.1293 7.69491C60.8258 8.5198 59.8233 9.6679 59.1221 11.1245C58.4196 12.5837 58.0879 14.2656 58.1099 16.1562C58.1318 18.0395 58.5027 19.7059 59.2393 21.1409C59.9743 22.5731 61.0033 23.693 62.3249 24.4867Z" fill="white" stroke="white"/>
</svg>
